<svg width="244" height="206" viewBox="0 0 244 206" fill="none" xmlns="http://www.w3.org/2000/svg">
<path d="M18.6279 48.6104C8.3252 48.6104 1.9043 41.6035 1.9043 30.3975V30.3486C1.9043 19.167 8.37402 12.1602 18.6279 12.1602C28.9062 12.1602 35.3271 19.167 35.3271 30.3486V30.3975C35.3271 36.8916 33.1787 41.9941 29.3457 45.1191L33.96 51.5645H27.71L24.8779 47.6094C22.998 48.2686 20.8984 48.6104 18.6279 48.6104ZM18.6279 43.1416C19.6289 43.1416 20.5566 43.0195 21.4355 42.7998L17.041 36.6475H23.291L25.7812 40.1143C27.7832 37.8926 28.9062 34.5479 28.9062 30.3975V30.3486C28.9062 22.5361 24.9268 17.6289 18.6279 17.6289C12.3535 17.6289 8.34961 22.5117 8.34961 30.3486V30.3975C8.34961 38.2344 12.3291 43.1416 18.6279 43.1416ZM40.3564 48V12.7705H54.4189C61.9385 12.7705 66.5283 16.9453 66.5283 23.7568V23.8057C66.5283 28.542 63.9893 32.375 59.8877 33.8643L67.5781 48H60.4004L53.4668 34.8164H46.6553V48H40.3564ZM46.6553 29.8359H53.7598C57.7393 29.8359 60.083 27.6387 60.083 23.8545V23.8057C60.083 20.1191 57.5928 17.873 53.6377 17.873H46.6553V29.8359ZM71.6064 48V12.7705H94.4092V18.0684H77.9053V27.5654H93.5059V32.668H77.9053V42.7021H94.4092V48H71.6064ZM97.3877 48L105.762 35.085L97.4854 22.1211H104.321L109.521 31.2031H109.668L114.819 22.1211H121.46L113.135 34.9141L121.387 48H114.746L109.375 38.7227H109.229L103.882 48H97.3877ZM124.561 56.5449V22.1211H130.64V26.5889H130.762C132.251 23.4883 135.083 21.584 138.794 21.584C145.361 21.584 149.512 26.7109 149.512 35.0605V35.085C149.512 43.3857 145.361 48.5127 138.867 48.5127C135.181 48.5127 132.227 46.6572 130.762 43.6299H130.64V56.5449H124.561ZM136.987 43.3857C140.869 43.3857 143.311 40.1875 143.311 35.085V35.0605C143.311 29.8848 140.869 26.7109 136.987 26.7109C133.228 26.7109 130.591 29.9824 130.591 35.0605V35.085C130.591 40.1387 133.228 43.3857 136.987 43.3857ZM153.418 48V22.1211H159.497V26.5889H159.619C160.425 23.4639 162.573 21.584 165.552 21.584C166.309 21.584 167.017 21.7061 167.48 21.8281V27.3213C166.968 27.126 166.04 26.9795 165.015 26.9795C161.572 26.9795 159.497 29.1523 159.497 32.9854V48H153.418ZM181.006 48.5127C173.242 48.5127 168.555 43.3613 168.555 35.1338V35.1094C168.555 26.9551 173.315 21.584 180.713 21.584C188.11 21.584 192.7 26.7842 192.7 34.5967V36.5498H174.585C174.683 41.0908 177.173 43.7764 181.128 43.7764C184.155 43.7764 186.133 42.165 186.719 40.4316L186.768 40.2607H192.456L192.383 40.5293C191.577 44.5088 187.769 48.5127 181.006 48.5127ZM180.786 26.3447C177.563 26.3447 175.146 28.5176 174.658 32.4971H186.792C186.353 28.3955 184.009 26.3447 180.786 26.3447ZM206.738 48.5127C199.951 48.5127 196.069 45.29 195.532 40.4805L195.508 40.2607H201.489L201.538 40.4805C202.002 42.7021 203.687 44.0205 206.763 44.0205C209.717 44.0205 211.499 42.8242 211.499 40.9199V40.8955C211.499 39.333 210.596 38.4541 207.91 37.8438L203.613 36.8916C198.657 35.793 196.167 33.376 196.167 29.543V29.5186C196.167 24.7822 200.293 21.584 206.543 21.584C212.988 21.584 216.748 25.124 216.968 29.5918L216.992 29.8604H211.328L211.304 29.665C211.035 27.5898 209.375 26.0762 206.543 26.0762C203.857 26.0762 202.173 27.3213 202.173 29.2256V29.25C202.173 30.7393 203.174 31.7158 205.859 32.3262L210.181 33.2783C215.527 34.4746 217.603 36.5742 217.603 40.334V40.3584C217.603 45.2412 213.086 48.5127 206.738 48.5127ZM231.592 48.5127C224.805 48.5127 220.923 45.29 220.386 40.4805L220.361 40.2607H226.343L226.392 40.4805C226.855 42.7021 228.54 44.0205 231.616 44.0205C234.57 44.0205 236.353 42.8242 236.353 40.9199V40.8955C236.353 39.333 235.449 38.4541 232.764 37.8438L228.467 36.8916C223.511 35.793 221.021 33.376 221.021 29.543V29.5186C221.021 24.7822 225.146 21.584 231.396 21.584C237.842 21.584 241.602 25.124 241.821 29.5918L241.846 29.8604H236.182L236.157 29.665C235.889 27.5898 234.229 26.0762 231.396 26.0762C228.711 26.0762 227.026 27.3213 227.026 29.2256V29.25C227.026 30.7393 228.027 31.7158 230.713 32.3262L235.034 33.2783C240.381 34.4746 242.456 36.5742 242.456 40.334V40.3584C242.456 45.2412 237.939 48.5127 231.592 48.5127Z" fill="white"/>
<g clip-path="url(#clip0_6_150)">
<path d="M62.2725 118.048C65.7656 118.048 67.611 116.071 67.611 112.644V97.0901C67.611 90.2358 71.2358 86.7428 77.8265 86.7428H93.7758C97.2689 86.7428 99.1802 84.8314 99.1802 81.4043C99.1802 77.9772 97.2689 76.1318 93.7758 76.1318H77.6947C63.9202 76.1318 57 82.9202 57 96.4969V112.644C57 116.071 58.9113 118.048 62.2725 118.048ZM180.707 118.048C184.2 118.048 186.045 116.071 186.045 112.644V96.4969C186.045 82.9202 179.125 76.1318 165.35 76.1318H149.203C145.776 76.1318 143.865 77.9772 143.865 81.4043C143.865 84.8314 145.776 86.7428 149.203 86.7428H165.153C171.677 86.7428 175.434 90.2358 175.434 97.0901V112.644C175.434 116.071 177.345 118.048 180.707 118.048ZM77.6947 205.111H93.7758C97.2689 205.111 99.1802 203.2 99.1802 199.838C99.1802 196.411 97.2689 194.5 93.7758 194.5H77.8265C71.2358 194.5 67.611 191.007 67.611 184.153V168.599C67.611 165.105 65.6997 163.194 62.2725 163.194C58.8454 163.194 57 165.105 57 168.599V184.68C57 198.322 63.9202 205.111 77.6947 205.111ZM149.203 205.111H165.35C179.125 205.111 186.045 198.256 186.045 184.68V168.599C186.045 165.105 184.134 163.194 180.707 163.194C177.28 163.194 175.434 165.105 175.434 168.599V184.153C175.434 191.007 171.677 194.5 165.153 194.5H149.203C145.776 194.5 143.865 196.411 143.865 199.838C143.865 203.2 145.776 205.111 149.203 205.111ZM92.1282 170.378H150.983C157.903 170.378 161.462 166.951 161.462 160.096V125.298C161.462 118.312 157.903 114.885 150.983 114.885H142.414C139.845 114.885 139.054 114.423 137.538 112.71L134.836 109.744C133.188 107.899 131.475 106.976 128.113 106.976H114.8C111.373 106.976 109.659 107.899 108.012 109.744L105.309 112.71C103.794 114.358 103.003 114.885 100.432 114.885H92.1282C85.1421 114.885 81.649 118.312 81.649 125.298V160.096C81.649 166.951 85.1421 170.378 92.1282 170.378ZM121.654 162.14C110.648 162.14 101.816 153.374 101.816 142.302C101.816 131.361 110.648 122.596 121.654 122.596C132.529 122.596 141.294 131.361 141.294 142.302C141.294 153.572 132.529 162.14 121.654 162.14ZM121.588 156.406C129.299 156.406 135.627 150.211 135.627 142.302C135.627 134.525 129.299 128.264 121.588 128.264C113.811 128.264 107.484 134.525 107.484 142.302C107.484 150.211 113.811 156.406 121.588 156.406ZM147.885 132.877C145.447 132.877 143.469 130.9 143.469 128.396C143.469 125.891 145.447 123.914 147.885 123.914C150.323 123.914 152.367 125.891 152.367 128.396C152.367 130.9 150.323 132.877 147.885 132.877Z" fill="white" fill-opacity="0.85"/>
</g>
<defs>
<clipPath id="clip0_6_150">
<rect width="129.045" height="129.111" fill="white" transform="translate(57 76)"/>
</clipPath>
</defs>
</svg>
