<svg width="190" height="160" viewBox="0 0 190 160" fill="none" xmlns="http://www.w3.org/2000/svg">
<path d="M14.5054 37.4753C6.48273 37.4753 1.48285 32.0191 1.48285 23.2931V23.2551C1.48285 14.5481 6.52076 9.09193 14.5054 9.09193C22.509 9.09193 27.5088 14.5481 27.5088 23.2551V23.2931C27.5088 28.35 25.8359 32.3233 22.8512 34.7567L26.4442 39.7756H21.5774L19.3722 36.6958C17.9083 37.2091 16.2734 37.4753 14.5054 37.4753ZM14.5054 33.2168C15.2848 33.2168 16.0072 33.1218 16.6916 32.9507L13.2696 28.1599H18.1364L20.0756 30.8595C21.6345 29.1295 22.509 26.525 22.509 23.2931V23.2551C22.509 17.1716 19.4102 13.3504 14.5054 13.3504C9.61954 13.3504 6.50174 17.1526 6.50174 23.2551V23.2931C6.50174 29.3956 9.60053 33.2168 14.5054 33.2168ZM31.4251 37V9.5672H42.3754C48.2308 9.5672 51.8048 12.8181 51.8048 18.1221V18.1601C51.8048 21.8483 49.8277 24.833 46.6339 25.9927L52.6223 37H47.0331L41.634 26.7341H36.3299V37H31.4251ZM36.3299 22.8559H41.8621C44.9609 22.8559 46.7859 21.1449 46.7859 18.1982V18.1601C46.7859 15.2895 44.8468 13.5405 41.7671 13.5405H36.3299V22.8559ZM55.7591 37V9.5672H73.5153V13.6926H60.6639V21.0878H72.8119V25.0611H60.6639V32.8746H73.5153V37H55.7591ZM75.8347 37L82.3554 26.9432L75.9107 16.8484H81.2338L85.2831 23.9205H85.3972L89.4085 16.8484H94.5795L88.0967 26.8101L94.5224 37H89.3515L85.1691 29.7758H85.055L80.8916 37H75.8347ZM96.9939 43.6538V16.8484H101.728V20.3274H101.823C102.982 17.913 105.188 16.4302 108.077 16.4302C113.191 16.4302 116.423 20.4225 116.423 26.9242V26.9432C116.423 33.4069 113.191 37.3992 108.134 37.3992C105.264 37.3992 102.963 35.9544 101.823 33.597H101.728V43.6538H96.9939ZM106.67 33.4069C109.693 33.4069 111.594 30.9165 111.594 26.9432V26.9242C111.594 22.8939 109.693 20.4225 106.67 20.4225C103.743 20.4225 101.69 22.9699 101.69 26.9242V26.9432C101.69 30.8785 103.743 33.4069 106.67 33.4069ZM119.465 37V16.8484H124.199V20.3274H124.294C124.921 17.894 126.594 16.4302 128.913 16.4302C129.503 16.4302 130.054 16.5252 130.415 16.6203V20.8977C130.016 20.7456 129.293 20.6316 128.495 20.6316C125.814 20.6316 124.199 22.3235 124.199 25.3083V37H119.465ZM140.947 37.3992C134.902 37.3992 131.252 33.3879 131.252 26.9812V26.9622C131.252 20.6126 134.959 16.4302 140.719 16.4302C146.479 16.4302 150.053 20.4795 150.053 26.563V28.0839H135.947C136.023 31.6199 137.962 33.7111 141.042 33.7111C143.4 33.7111 144.939 32.4564 145.396 31.1066L145.434 30.9735H149.863L149.806 31.1826C149.179 34.2814 146.213 37.3992 140.947 37.3992ZM140.776 20.1373C138.267 20.1373 136.385 21.8293 136.004 24.928H145.453C145.111 21.7342 143.286 20.1373 140.776 20.1373ZM160.985 37.3992C155.7 37.3992 152.677 34.8898 152.259 31.1446L152.24 30.9735H156.897L156.935 31.1446C157.297 32.8746 158.608 33.9012 161.004 33.9012C163.304 33.9012 164.692 32.9697 164.692 31.4868V31.4678C164.692 30.2511 163.988 29.5667 161.897 29.0914L158.551 28.35C154.692 27.4945 152.753 25.6124 152.753 22.6277V22.6087C152.753 18.9206 155.966 16.4302 160.833 16.4302C165.852 16.4302 168.779 19.1867 168.95 22.6657L168.969 22.8749H164.559L164.54 22.7228C164.331 21.1068 163.038 19.9282 160.833 19.9282C158.741 19.9282 157.43 20.8977 157.43 22.3806V22.3996C157.43 23.5593 158.209 24.3197 160.3 24.795L163.665 25.5364C167.829 26.4679 169.445 28.1029 169.445 31.0306V31.0496C169.445 34.8518 165.928 37.3992 160.985 37.3992ZM180.338 37.3992C175.053 37.3992 172.03 34.8898 171.612 31.1446L171.593 30.9735H176.251L176.289 31.1446C176.65 32.8746 177.962 33.9012 180.357 33.9012C182.657 33.9012 184.045 32.9697 184.045 31.4868V31.4678C184.045 30.2511 183.342 29.5667 181.25 29.0914L177.904 28.35C174.045 27.4945 172.106 25.6124 172.106 22.6277V22.6087C172.106 18.9206 175.319 16.4302 180.186 16.4302C185.205 16.4302 188.132 19.1867 188.303 22.6657L188.322 22.8749H183.912L183.893 22.7228C183.684 21.1068 182.391 19.9282 180.186 19.9282C178.095 19.9282 176.783 20.8977 176.783 22.3806V22.3996C176.783 23.5593 177.562 24.3197 179.653 24.795L183.018 25.5364C187.182 26.4679 188.798 28.1029 188.798 31.0306V31.0496C188.798 34.8518 185.281 37.3992 180.338 37.3992Z" fill="black"/>
<g clip-path="url(#clip0_6_168)">
<path d="M48.4909 91.9229C51.2109 91.9229 52.6479 90.3833 52.6479 87.7146V75.6029C52.6479 70.2656 55.4705 67.5456 60.6026 67.5456H73.0222C75.7422 67.5456 77.2304 66.0573 77.2304 63.3886C77.2304 60.7199 75.7422 59.283 73.0222 59.283H60.4999C49.7739 59.283 44.3853 64.569 44.3853 75.141V87.7146C44.3853 90.3833 45.8736 91.9229 48.4909 91.9229ZM140.714 91.9229C143.434 91.9229 144.871 90.3833 144.871 87.7146V75.141C144.871 64.569 139.482 59.283 128.756 59.283H116.183C113.514 59.283 112.026 60.7199 112.026 63.3886C112.026 66.0573 113.514 67.5456 116.183 67.5456H128.602C133.683 67.5456 136.608 70.2656 136.608 75.6029V87.7146C136.608 90.3833 138.097 91.9229 140.714 91.9229ZM60.4999 159.718H73.0222C75.7422 159.718 77.2304 158.229 77.2304 155.612C77.2304 152.943 75.7422 151.455 73.0222 151.455H60.6026C55.4705 151.455 52.6479 148.735 52.6479 143.398V131.286C52.6479 128.566 51.1596 127.077 48.4909 127.077C45.8222 127.077 44.3853 128.566 44.3853 131.286V143.808C44.3853 154.431 49.7739 159.718 60.4999 159.718ZM116.183 159.718H128.756C139.482 159.718 144.871 154.38 144.871 143.808V131.286C144.871 128.566 143.383 127.077 140.714 127.077C138.046 127.077 136.608 128.566 136.608 131.286V143.398C136.608 148.735 133.683 151.455 128.602 151.455H116.183C113.514 151.455 112.026 152.943 112.026 155.612C112.026 158.229 113.514 159.718 116.183 159.718ZM71.7392 132.672H117.569C122.957 132.672 125.728 130.003 125.728 124.665V97.5682C125.728 92.1282 122.957 89.4595 117.569 89.4595H110.897C108.895 89.4595 108.279 89.1003 107.099 87.7659L104.995 85.4565C103.712 84.0195 102.378 83.301 99.7601 83.301H89.3934C86.7248 83.301 85.3904 84.0195 84.1074 85.4565L82.0032 87.7659C80.8229 89.0489 80.2071 89.4595 78.2056 89.4595H71.7392C66.2991 89.4595 63.5791 92.1282 63.5791 97.5682V124.665C63.5791 130.003 66.2991 132.672 71.7392 132.672ZM94.7308 126.257C86.1602 126.257 79.2832 119.431 79.2832 110.809C79.2832 102.29 86.1602 95.464 94.7308 95.464C103.199 95.464 110.024 102.29 110.024 110.809C110.024 119.585 103.199 126.257 94.7308 126.257ZM94.6794 121.792C100.684 121.792 105.611 116.967 105.611 110.809C105.611 104.753 100.684 99.8776 94.6794 99.8776C88.6236 99.8776 83.6969 104.753 83.6969 110.809C83.6969 116.967 88.6236 121.792 94.6794 121.792ZM115.156 103.47C113.258 103.47 111.718 101.93 111.718 99.9802C111.718 98.0301 113.258 96.4904 115.156 96.4904C117.055 96.4904 118.646 98.0301 118.646 99.9802C118.646 101.93 117.055 103.47 115.156 103.47Z" fill="black" fill-opacity="0.85"/>
</g>
<defs>
<clipPath id="clip0_6_168">
<rect width="100.486" height="100.537" fill="white" transform="translate(44.3853 59.1803)"/>
</clipPath>
</defs>
</svg>
